<?xml version="1.0" standalone="no"?><!DOCTYPE svg PUBLIC "-//W3C//DTD SVG 1.1//EN" "http://www.w3.org/Graphics/SVG/1.1/DTD/svg11.dtd"><svg t="1521100961359" class="icon" style="" viewBox="0 0 1024 1024" version="1.1" xmlns="http://www.w3.org/2000/svg" p-id="1022" xmlns:xlink="http://www.w3.org/1999/xlink" width="200" height="200"><defs><style type="text/css"></style></defs><path d="M486.401008 486.380849 486.401008 25.598992c0-14.079446 11.519546-25.598992 25.598992-25.598992s25.598992 11.519546 25.598992 25.598992l0 460.781857c0 14.079446-11.519546 25.598992-25.598992 25.598992S486.401008 500.460294 486.401008 486.380849zM673.555239 26.008576C657.056688 20.530392 639.99496 33.048299 639.99496 50.442814l0 0.153594c0 11.199559 7.346911 20.875978 17.970492 24.434238 190.584496 63.831087 326.067161 248.924599 314.074033 463.277758-12.850694 229.622959-197.624219 417.225172-427.042385 433.288539C276.06689 990.437802 51.218143 776.967807 51.218143 511.979841 51.218143 308.864638 183.36014 136.148239 366.162542 74.992247 376.709327 71.459586 384.00504 61.847165 384.00504 50.724403L384.00504 50.199623c0-17.27932-16.933733-29.694831-33.329888-24.255045C137.025965 96.815388-14.187281 304.628005 1.082517 545.360926 17.158684 798.803747 221.310646 1004.658042 474.625472 1022.628534 774.287272 1043.901296 1023.979841 807.097821 1023.979841 511.979841 1023.979841 285.671952 877.156822 93.666712 673.555239 26.008576z" p-id="1023" fill="#ffffff"></path></svg>